nColumns=19
nRows=61
DataType=double
version=3
OpenSimVersion=4.1
endheader
time	ground_force_calcn_r_vx	ground_force_calcn_r_vy	ground_force_calcn_r_vz	ground_force_calcn_r_px	ground_force_calcn_r_py	ground_force_calcn_r_pz	ground_force_calcn_r_mx	ground_force_calcn_r_my	ground_force_calcn_r_mz	ground_force_calcn_l_vx	ground_force_calcn_l_vy	ground_force_calcn_l_vz	ground_force_calcn_l_px	ground_force_calcn_l_py	ground_force_calcn_l_pz	ground_force_calcn_l_mx	ground_force_calcn_l_my	ground_force_calcn_l_mz
3.75	-19.9445	543.725	-29.1511	1.37095	0	-0.423971	-0.0797055	2.17292	-0.116498	-2.73939	0.86721	0.0894512	1.50823	0	-0.562419	9.94602e-08	-3.14862e-08	-3.24775e-09
3.755	-17.9192	544.98	-28.9883	1.37221	0	-0.424097	-0.0700726	2.13113	-0.113358	-3.29419	1.04311	0.12272	1.53	0	-0.563144	2.55926e-07	-8.10391e-08	-9.5341e-09
3.76	-15.8023	546.945	-28.6857	1.37348	0	-0.424234	-0.0598081	2.07006	-0.108569	-3.85255	1.22103	0.162203	1.55182	0	-0.563983	6.35287e-07	-2.01347e-07	-2.67473e-08
3.765	-13.5696	549.614	-28.2585	1.37477	0	-0.424384	-0.0489701	1.98344	-0.101979	-4.38	1.39037	0.206576	1.57368	0	-0.564946	1.51084e-06	-4.79596e-07	-7.12565e-08
3.77	-11.1935	552.958	-27.7307	1.37608	0	-0.424543	-0.0378494	1.86976	-0.0937682	-4.83412	1.53794	0.253142	1.59556	0	-0.566048	3.41098e-06	-1.08518e-06	-1.78619e-07
3.775	-8.67124	556.943	-27.1963	1.37742	0	-0.424712	-0.0270662	1.73843	-0.0848897	-5.16537	1.64804	0.297602	1.61742	0	-0.567313	7.23735e-06	-2.30911e-06	-4.16979e-07
3.78	-6.03326	561.524	-26.6725	1.3788	0	-0.424893	-0.0171585	1.59696	-0.0758561	-5.31684	1.70235	0.334299	1.63924	0	-0.568786	1.42749e-05	-4.57055e-06	-8.97544e-07
3.785	-3.30374	566.653	-26.2639	1.38021	0	-0.42509	-0.00847899	1.4543	-0.0674058	-5.23253	1.68235	0.356282	1.66095	0	-0.570543	2.58187e-05	-8.30118e-06	-1.75799e-06
3.79	-0.528484	572.289	-26.0194	1.38165	0	-0.425305	-0.00121689	1.31776	-0.0599124	-4.86341	1.57127	0.356146	1.68246	0	-0.572715	4.18706e-05	-1.35275e-05	-3.06617e-06
3.795	2.22892	578.381	-25.9668	1.38313	0	-0.425539	0.00458496	1.18975	-0.0534144	-4.20185	1.36507	0.328578	1.70361	0	-0.57551	5.92106e-05	-1.92359e-05	-4.63017e-06
3.8	4.95434	584.919	-26.1435	1.38463	0	-0.425789	0.00906865	1.07066	-0.0478543	-3.29375	1.07669	0.272843	1.72413	0	-0.57927	7.03225e-05	-2.29876e-05	-5.82527e-06
3.805	7.6225	591.941	-26.5362	1.38613	0	-0.426055	0.0123491	0.958996	-0.042991	-2.27178	0.747669	0.197438	1.74352	0	-0.58458	6.67289e-05	-2.19612e-05	-5.79934e-06
3.81	10.2313	599.543	-27.1259	1.38761	0	-0.426339	0.014626	0.857069	-0.0387775	-1.31947	0.437427	0.118803	1.76075	0	-0.592619	4.69007e-05	-1.55485e-05	-4.22289e-06
3.815	12.8097	607.718	-27.8463	1.38904	0	-0.426639	0.0162867	0.772675	-0.0354048	-0.60404	0.201809	0.0555241	1.773	0	-0.606339	2.06295e-05	-6.89228e-06	-1.89629e-06
3.82	15.3873	616.427	-28.6677	1.39043	0	-0.426955	0.0177655	0.711702	-0.0330986	-0.188849	0.0636074	0.0174652	1.76857	0	-0.637403	2.43175e-06	-8.19051e-07	-2.24894e-07
3.825	18.0278	625.715	-29.4869	1.39178	0	-0.427288	0.0194469	0.67497	-0.0318081	-0.0688243	0.0233593	0.0063947	1.76404	0	-0.65997	-3.30101e-07	1.12038e-07	3.06709e-08
3.83	20.769	635.579	-30.266	1.3931	0	-0.427636	0.0215438	0.659288	-0.0313951	-0.0278443	0.00953676	0.00258528	1.77127	0	-0.653473	-5.59814e-07	1.91738e-07	5.19775e-08
3.835	23.6478	645.914	-30.9746	1.39441	0	-0.428002	0.0242492	0.66234	-0.0317623	-0.0118516	0.00410357	0.00110866	1.76296	0	-0.645145	-2.61981e-07	9.07103e-08	2.45071e-08
3.84	26.6957	656.605	-31.5858	1.39571	0	-0.428385	0.0277601	0.682787	-0.0328453	-0.00834645	0.00292063	0.000773779	1.7739	0	-0.647804	-2.73496e-07	9.57029e-08	2.53551e-08
3.845	29.8809	667.586	-32.0923	1.39704	0	-0.428786	0.0320338	0.715685	-0.0344045	-0.0054658	0.00193847	0.000507884	1.77216	0	-0.639281	-4.69181e-07	1.66397e-07	4.35964e-08
3.85	33.1813	678.806	-32.5378	1.39839	0	-0.429203	0.03683	0.753451	-0.0361158	-0.00496396	0.00179169	0.000481101	1.75129	0	-0.613878	-7.43615e-07	2.68401e-07	7.20703e-08
3.855	36.5323	690.201	-32.9483	1.39976	0	-0.429634	0.0419934	0.793378	-0.0378737	-0.0079582	0.00292847	0.000805637	1.73423	0	-0.589361	-8.40071e-07	3.0913e-07	8.50434e-08
3.86	39.86	701.708	-33.359	1.40115	0	-0.430075	0.0477527	0.840654	-0.0399644	-0.016794	0.0062986	0.00169698	1.73528	0	-0.578514	-1.11298e-06	4.17423e-07	1.12463e-07
3.865	43.1293	713.289	-33.8056	1.40256	0	-0.43052	0.0542491	0.897193	-0.0425215	-0.0338389	0.0129455	0.00330199	1.74362	0	-0.574331	-9.41092e-07	3.60027e-07	9.18314e-08
3.87	46.3079	724.914	-34.2896	1.40398	0	-0.430971	0.0612551	0.9589	-0.0453575	-0.0591913	0.0231339	0.00540229	1.75596	0	-0.573526	-5.84637e-07	2.28495e-07	5.33588e-08
3.875	49.401	736.496	-34.852	1.40539	0	-0.431432	0.0686851	1.02399	-0.0484568	-0.0878248	0.0351437	0.00726517	1.76968	0	-0.573821	-2.88141e-07	1.15302e-07	2.3836e-08
3.88	52.4087	747.971	-35.4648	1.40678	0	-0.431909	0.0766923	1.09454	-0.0518975	-0.112047	0.0460266	0.00809406	1.78368	0	-0.574335	-1.19748e-07	4.91901e-08	8.65038e-09
3.885	55.3957	759.362	-36.123	1.40814	0	-0.432409	0.0857181	1.17502	-0.055896	-0.126468	0.0534859	0.00758299	1.79751	0	-0.574772	-4.58904e-08	1.9408e-08	2.75157e-09
3.89	58.403	770.686	-36.8021	1.40946	0	-0.432937	0.0963952	1.27203	-0.0607425	-0.130672	0.0570731	0.00603127	1.81094	0	-0.575035	-1.86482e-08	8.14487e-09	8.6072e-10
3.895	61.4443	781.558	-37.4803	1.41073	0	-0.433495	0.10902	1.38671	-0.066501	-0.128041	0.0579397	0.00396593	1.8238	0	-0.575092	-9.17198e-09	4.15041e-09	2.84093e-10
3.9	64.5675	791.619	-38.1327	1.41195	0	-0.434091	0.123598	1.51536	-0.0729956	-0.123057	0.0578835	0.00179517	1.83599	0	-0.574938	-5.47569e-09	2.57566e-09	7.98805e-11
3.905	67.8194	800.783	-38.7377	1.41316	0	-0.434735	0.140169	1.65505	-0.0800629	-0.119452	0.0586064	-0.000358145	1.84741	0	-0.574579	-3.67695e-09	1.80401e-09	-1.10244e-11
3.91	71.183	808.88	-39.2773	1.41437	0	-0.43544	0.1583	1.79883	-0.0873467	-0.119912	0.0615779	-0.00261273	1.85798	0	-0.574033	-2.65756e-09	1.36472e-09	-5.79048e-11
3.915	74.6772	815.747	-39.7542	1.41561	0	-0.436218	0.177662	1.94071	-0.0945778	-0.126707	0.0683449	-0.00531875	1.86764	0	-0.573319	-2.0624e-09	1.11245e-09	-8.65734e-11
3.92	78.3048	821.211	-40.1495	1.41692	0	-0.437082	0.197465	2.07089	-0.101247	-0.142758	0.081175	-0.00910451	1.87638	0	-0.572464	-1.74278e-09	9.90982e-10	-1.11148e-10
3.925	82.0314	825.169	-40.4985	1.41829	0	-0.438041	0.216927	2.18211	-0.107096	-0.172991	0.104088	-0.0151748	1.88416	0	-0.571494	-1.62794e-09	9.79526e-10	-1.42804e-10
3.93	85.8484	827.535	-40.795	1.41972	0	-0.439101	0.235748	2.27249	-0.112027	-0.226655	0.14491	-0.0260446	1.89099	0	-0.570431	-1.68649e-09	1.07825e-09	-1.93792e-10
3.935	89.7136	828.203	-41.0126	1.42122	0	-0.440268	0.252891	2.33459	-0.115609	-0.321578	0.219509	-0.0473115	1.89688	0	-0.569293	-1.89695e-09	1.29485e-09	-2.79084e-10
3.94	93.5922	827.117	-41.1876	1.42278	0	-0.441542	0.267529	2.36428	-0.117733	-0.492799	0.361293	-0.0923142	1.90184	0	-0.568095	-2.13973e-09	1.56873e-09	-4.00828e-10
3.945	97.428	824.12	-41.1469	1.4244	0	-0.442907	0.278676	2.35726	-0.117694	-0.809406	0.642581	-0.194421	1.9059	0	-0.56685	-1.67438e-09	1.32928e-09	-4.0219e-10
3.95	101.174	819.127	-40.8774	1.42608	0	-0.444349	0.28598	2.31535	-0.115544	-1.4071	1.22472	-0.440704	1.90907	0	-0.565586	3.00661e-09	-2.6169e-09	9.41668e-10
3.955	104.912	812.014	-40.3067	1.42784	0	-0.445869	0.291989	2.25998	-0.112181	-2.53695	2.46895	-1.06023	1.91136	0	-0.564355	2.55475e-08	-2.48627e-08	1.06767e-08
3.96	108.592	802.611	-39.2597	1.42969	0	-0.447456	0.301948	2.23172	-0.109164	-4.60269	5.16759	-2.6203	1.91283	0	-0.563285	8.85689e-08	-9.94393e-08	5.04222e-08
3.965	112.154	790.668	-37.5179	1.43161	0	-0.449027	0.315492	2.22417	-0.105539	-7.66035	10.7942	-6.59324	1.91347	0	-0.56247	1.06914e-07	-1.50652e-07	9.20206e-08
3.97	115.789	776.119	-35.4279	1.43355	0	-0.450516	0.32382	2.17052	-0.099079	-4.03738	20.78	-11.4335	1.91304	0	-0.5624	-1.02977e-05	5.30014e-05	-2.91623e-05
3.975	119.081	759.049	-32.5458	1.43545	0	-0.451824	0.321051	2.04645	-0.0877457	9.47734	34.917	-11.8439	1.91301	0	-0.562608	9.46027e-05	0.000348541	-0.000118226
3.98	121.976	739.797	-29.1503	1.43724	0	-0.452819	0.309766	1.87877	-0.0740294	23.577	58.9098	-11.7718	1.91353	0	-0.562643	0.000600974	0.0015016	-0.000300061
3.985	124.509	718.734	-25.9562	1.4389	0	-0.453461	0.290202	1.6752	-0.0604977	30.5124	109.241	-12.9392	1.91406	0	-0.562649	0.00165775	0.00593506	-0.000702989
3.99	126.133	695.451	-22.415	1.44049	0	-0.453811	0.255601	1.40929	-0.0454228	22.1668	176.662	-13.6821	1.9146	0	-0.562789	0.0027302	0.0217588	-0.00168517
3.995	126.979	669.172	-18.9688	1.44212	0	-0.454005	0.202619	1.06779	-0.0302682	13.9269	238.8	-14.8216	1.91564	0	-0.563243	0.00406736	0.0697416	-0.00432865
4	127.017	639.011	-15.9048	1.44392	0	-0.454121	0.138822	0.698402	-0.0173831	4.90707	286.312	-15.0023	1.91732	0	-0.564141	0.00294668	0.17193	-0.00900883
4.005	125.855	604.159	-12.7828	1.44594	0	-0.454115	0.074736	0.358764	-0.00759072	-6.70846	319.035	-13.0728	1.91955	0	-0.565427	-0.00666609	0.31702	-0.0129902
4.01	123.488	564.977	-9.84828	1.44825	0	-0.45392	0.01836	0.0839995	-0.00146422	-18.2705	340.254	-10.3085	1.92205	0	-0.566888	-0.0257881	0.480255	-0.0145501
4.015	120.809	521.33	-6.67095	1.45097	0	-0.453482	-0.0260132	-0.112256	0.00143643	-28.9531	357.704	-7.13639	1.92544	0	-0.568892	-0.0570925	0.705355	-0.0140722
4.02	117.616	469.954	-2.99927	1.45441	0	-0.452798	-0.0576507	-0.230353	0.00147012	-39.002	381.904	-4.07822	1.93102	0	-0.572205	-0.105905	1.03701	-0.0110739
4.025	111.812	403.117	0.402848	1.45932	0	-0.451737	-0.0714187	-0.257486	-0.000257314	-49.1699	414.644	-0.563111	1.9383	0	-0.576264	-0.162471	1.3701	-0.00186068
4.03	103.764	321.318	4.17365	1.46688	0	-0.450011	-0.0599489	-0.185639	-0.00241129	-58.6096	450.39	2.92699	1.94601	0	-0.579888	-0.217456	1.67106	0.0108599
4.035	94.8879	246.887	7.48828	1.47704	0	-0.447586	-0.0274976	-0.0715453	-0.00217003	-67.0199	485.523	5.79008	1.954	0	-0.582645	-0.270535	1.95988	0.0233725
4.04	85.2305	203.965	10.2823	1.48431	0	-0.446234	-0.00136213	-0.00325971	-0.000164329	-75.9832	520.657	8.75566	1.96298	0	-0.584922	-0.314694	2.15636	0.0362626
4.045	77.3009	187.315	12.1221	1.48469	0	-0.446553	0.000242795	0.000588337	3.80745e-05	-85.408	553.695	12.1276	1.97251	0	-0.586955	-0.335974	2.1781	0.0477068
4.05	72.6336	175.651	12.3683	1.48522	0	-0.44647	4.20838e-05	0.000101772	7.16618e-06	-93.8518	582.443	15.0643	1.98206	0	-0.588496	-0.339578	2.10741	0.0545061
